<svg version="1" xmlns="http://www.w3.org/2000/svg" width="2665.333" height="2665.333" viewBox="0 0 1999.000000 1999.000000"><path d="M133 666.8c-28.6 1.7-47.4 12.2-45.6 25.4 1.3 9.2 11.3 18.9 27.9 27 3.1 1.5 5.7 2.9 5.7 3.1 0 .2-2.1.3-4.7.3-14.3 0-28.4 3.2-35.5 8.1-4.2 2.9-5 4.5-4.2 8.8.3 1.6.7 5 .9 7.4.4 5.8 4 10.3 11.3 14 8.8 4.5 14.6 5.8 31.2 7.5 4.7.4 54.6 14 64.2 17.4 4 1.5 11.4 1.4 12.6 0 1.8-2.2.2-3.4-10.4-7.7-5.6-2.2-16.1-6.5-23.5-9.6-7.3-3.1-13.9-5.3-14.6-5.1-.8.3-1.1.1-.8-.4.3-.6.1-1-.6-1s-.9-.3-.5-.7c.5-.5 4.8-1.1 11.1-1.4 1.4-.1 5.9.9 14.5 3.2 4.1 1.1 9.8 2.6 12.5 3.4 8.7 2.2 19.6 5.5 34.3 10.2 12.4 4 14.2 4.9 14.2 6.8 0 1.1.5 2.6 1.2 3.3 1.5 1.5 1.2 1.5-5.1-.4-2.8-.8-6.6-1.3-8.4-1-12.5 2-32.4 3.9-38.7 3.7-15.1-.5-17-.6-17-1.4 0-.4-1.2-1.2-2.7-1.8-2.5-1-18.8-5.3-23.8-6.3-1.1-.3-3.5-.8-5.4-1.2-2.4-.5-3.2-.4-2.7.4 1.1 1.8-13.3.2-25.1-2.8l-7.1-1.8.3 2.2c.4 1.8.3 1.9-.8.5-.9-1.2-1.6-1.4-2.9-.5-1.5.9-2.7.1-7.5-4.5-5.1-4.9-6.2-5.5-9.5-5.4-5.6.4-8 1.3-11.6 4.4-3.3 2.8-3.3 2.9-2 7 1.2 3.8 2 4.5 7.4 7.2 3.4 1.6 6.7 2.9 7.3 2.9 1.4 0 1.5 1.7.1 2.2-.6.2-1.3 2-1.6 4-.5 3.1.1 5 4 12.1 4.1 7.6 5.3 9 10.9 12.4 7.5 4.7 9.4 5.5 22.2 8.8 18.3 4.8 20.5 5.6 24.3 9.1l3.7 3.4h-3.7c-7.4 0-11.8 3.5-8.5 6.7 1.4 1.5 1.4 2-.4 5.5-3.3 6.5-2.1 15.5 3.1 22.8l2 2.9-2 3.3c-1.1 1.8-2 4-2 5 0 .9-1.9 3.1-4.2 4.9-10.3 8-18 19.2-19.3 28.3-.6 3.6-.3 5 1.8 8.2 3.5 5.6 8.9 10.8 16.3 15.5 3.5 2.3 6.4 4.6 6.4 5.1 0 .6-.9 2.2-1.9 3.7l-1.9 2.7 2.9 3.9c1.6 2.2 6.2 7.3 10.1 11.3 3.9 4 6.7 7.6 6.2 8.1-.5.4-5.4 3.7-10.9 7.4-31.5 20.8-61.1 49.5-79.3 76.6-7.2 10.8-20.6 37.1-18.8 37.1.2 0 2.7-3.9 5.6-8.8 3-4.8 6.3-9.9 7.4-11.3 1.2-1.4 3.2-4 4.6-5.9 2.5-3.3 4-5.1 8.8-10.5 1.5-1.7 5.4-6.2 8.7-10 10.1-11.8 21.8-23.2 34.4-33.5 2.3-1.9 5.2-4.3 6.4-5.3 7.9-6.6 41-26.7 44-26.7 1.7 0 10.4 7.7 26.2 23.2 26.3 25.6 38.8 33.5 66 41.7 15.9 4.8 19.8 5.8 25.8 6.7 2 .3 4.9.9 6.4 1.3 2.5.7 2.4.8-2.2 2.1-2.8.7-7.9 2.8-11.5 4.6-24.9 12.5-22.9 33.2 5.1 51.2 3.6 2.3 6.9 4.2 7.4 4.2s1.6.6 2.4 1.3c3.5 2.9 32.6 13.7 41 15.2 1.7.3 6.2 1.2 9.9 1.9 3.7.8 8.5 1.7 10.7 2 6.7.9 11.8 1.5 16.5 2.1 2.5.3 9.2 1.2 15 2.1 5.8.8 12.3 1.7 14.5 2 4.1.5 6 .8 13 1.8 2.2.4 5.7.8 7.9 1.1 2.1.2 5.5.7 7.5 1 2 .3 11.5 1.6 21.1 2.9 13.1 1.9 19.9 3.4 27 5.9 8.2 3 25.1 7.6 33 9 1.4.3 4.3.8 6.5 1.2 2.2.4 6 1.8 8.5 3 13.7 6.8 33.8 9.9 63.5 10 20.6 0 29.1-.8 43-4 3.4-.7 7.4-1.2 9-1 1.7.2 6.2.6 10 1 3.9.4 7.8.9 8.7 1 1.5.3 11.3 1.4 17.8 2 1.4.1 4.8.5 7.5.8 2.8.4 7.7.9 11 1.2 3.3.3 7.6.8 9.5 1 1.9.2 6 .6 9 .9 6.3.6 14.7 1.5 20.5 2.1 6.6.7 19.4 1.8 33.5 3 3 .3 7.8.7 10.5 1 6.6.7 13.3 1.3 23 2 4.4.4 9.6.8 11.5 1 1.9.2 7.6.6 12.5.9 5 .4 11 .9 13.5 1.1 2.5.2 7.9.7 12 1 4.1.3 10 .8 13 1 3 .2 9.6.7 14.5 1 5 .3 10.6.7 12.5 1 1.9.2 7.6.7 12.5 1 5 .3 11.5.8 14.5 1 3 .3 8.2.7 11.5.9 3.3.3 9.4.8 13.5 1.1 4.1.3 9.8.8 12.5 1 5.7.4 18.1 1.5 24 2 2.2.2 7.6.6 12 1 4.4.3 9.4.8 11 1 1.7.2 6.4.7 10.6 1 4.2.3 8.5.7 9.5.9 1.1.2 5.5.7 9.9 1.1 4.4.4 9.1.8 10.5 1 1.4.1 5.4.6 9 .9 7 .7 12.4 1.4 18 2.1 1.9.2 6 .7 9 1 3 .3 6.6.8 8 1 1.4.2 4.8.7 7.5 1 2.8.3 6.6.8 8.5 1 1.9.3 5.8.7 8.5 1 2.8.3 5.7.8 6.5 1 .8.2 4 .7 7 1 3 .3 6.2.8 7 1 .8.2 8.9.7 18 1 9.1.4 19.9.9 24 1 4.1.2 16.5.7 27.5 1 11 .4 23.6.9 28 1 9.7.4 59.3 1.6 84 2 22.6.4 146.6.5 156 .1 11.4-.5 31.7-1.8 33.4-2.1.9-.1 5.2-.6 9.6-1 4.4-.3 9.1-.8 10.5-1 1.4-.2 5.6-.6 9.3-1 3.7-.3 7.7-.8 8.9-1 1.1-.3 4.6-.7 7.7-1 3.1-.3 6.7-.8 8.1-1 1.4-.3 4.8-.7 7.5-1.1 2.8-.3 5.7-.7 6.5-.9.8-.1 4-.6 7-1s6.2-.9 7-1c.8-.1 4-.6 7-1s6.4-.9 7.5-1.1c1.1-.3 3.8-.7 6-1 2.2-.2 5.1-.7 6.5-.9 4.1-.7 17.1-2.5 22-3.1 2.5-.3 5.2-.7 6-.9.8-.2 4.2-.7 7.5-1.1 3.3-.3 6.9-.8 8-1 1.1-.2 4.6-.7 7.8-1 3.2-.3 6.6-.7 7.5-.9.9-.2 2.7-.4 4-.4 3.5-.1 2.7-2.9-1-3.5-1.8-.3-28.5-.8-59.3-1.1-30.8-.3-61.4-.8-68-1-21.9-.6-49.9-1.6-57.5-2-26.1-1.2-36.2-1.7-41.5-2-3.3-.2-10.7-.6-16.5-1-5.8-.3-13.2-.8-16.5-1-3.3-.2-9.8-.7-14.5-1-4.7-.3-10.3-.8-12.5-1-2.2-.2-7-.7-10.7-1-13.7-1.1-20.4-1.6-24.3-2-2.2-.2-6.5-.6-9.5-.9-7.9-.8-26-2.7-29.5-3.1-1.6-.2-5.7-.6-9-1-3.3-.3-6.9-.8-8-1-1.1-.2-4.7-.7-8-1-13.1-1.4-34.4-4.7-41-6.5-3.8-1-11.8-2.8-17.7-4.1-6-1.2-10.8-2.5-10.8-2.9 0-.4 1.8-.4 3.9 0 6.5 1.2 14.3.2 16.8-2.2 2-1.8 2.1-2.2.7-4.2l-1.4-2.3 25.4.2 25.4.2 4.4 4.5c2.3 2.5 7.2 6.5 10.8 8.9 13.7 9.4 25.2 12.7 42.6 12.3 20.4-.4 31.9-4.6 50-17.9 2.1-1.6 5.7-.9 47.9 8.2 3.9.8 8.1 1.7 9.5 1.9 1.3.3 5.6 1.2 9.5 2.1 3.8.8 8.9 1.9 11.2 2.4 2.3.4 7 1.5 10.3 2.4 12.8 3.3 26.3 2.4 33.4-2.2 4.1-2.7 3.1-2.7 35.1-.8 2.8.1 10.6.6 17.5.9 6.9.4 15.7.9 19.5 1.1 3.9.3 11.5.7 17 1 5.5.2 14.5.7 20 1 5.5.3 14.7.8 20.5 1 5.8.2 18.6.7 28.5 1.1 22.2.9 82.2 1.1 96.8.4 7.4-.4 11.1-1 11.6-1.9.5-.7 2.1-1.2 3.7-1 1.6.1 4.9-.1 7.4-.5s10-.8 16.8-1c12.7-.4 17-1.6 11.9-3.5-3.9-1.5-34-.4-39.9 1.5-1 .3-2.5.1-3.5-.4-2-1.1-12-2.1-35.8-3.7-4.4-.3-11.1-.7-15-1-10.2-.7-18.9-1.2-52.5-3-5.8-.3-13.9-.8-18-1-4.1-.2-12.9-.7-19.5-1-6.6-.3-14.5-.8-17.5-1-3-.2-10.2-.7-16-1-5.8-.3-12.7-.7-15.5-1-2.7-.2-8.6-.7-13-1-10.4-.7-26.6-2.2-34.5-3-1.4-.1-6.1-.6-10.5-1s-8.2-1-8.5-1.2c-.5-.6 93.1.4 112 1.2 5.8.2 29.4.6 52.5.9 50.7.7 86.6 1.5 96 2.1 25.2 1.5 30.3 1.6 30.9.6 1.1-1.7-2.6-2.8-11.9-3.5-4.9-.4-10.8-.9-13-1.1-4.4-.5-19.7-1.4-31.8-2-14.7-.7-58.1-1.5-104.7-2-54.4-.6-82.3-1.4-102.5-3-3.3-.3-9.6-.7-14-1-14.1-1-37-3.5-54.5-6.1-5.2-.8-9.9-1.4-10.4-1.4-2.2 0 .7-1.4 3.2-1.5 3.7-.3 16.1-1.6 19.2-2 1.4-.2 4.8-.7 7.5-1 2.8-.3 7.3-.9 10-1.2 2.8-.4 5.3-.6 5.6-.5.3 0 3.5-.3 7-.8 6.1-.8 10.3-1.3 21.4-2.5 7.2-.8 13.5-1.6 17-2.1 5.9-1 19.1-1.2 25-.4 3.3.5 8.7 1.1 12 1.5 3.3.3 7.8.8 10 1 11.1 1.2 23.7 2.5 30 3 3.9.3 8.1.8 9.5 1 1.4.3 5.7.7 9.5 1 3.9.3 8.8.7 11 1 3.6.4 8.5.8 20 2 2.2.2 9.4.8 16 1.4 6.6.7 14 1.4 16.5 1.6 2.5.2 7.9.7 12 1 4.1.3 9.5.8 12 1 2.5.3 7.2.7 10.5 1 3.3.3 8.5.7 11.7 1 3.1.2 8.7.7 12.5 1 3.7.3 9.1.7 11.8 1 2.8.2 8.8.7 13.5 1 4.7.3 10.5.8 13 1 2.5.2 9 .7 14.5 1.1 5.5.3 11.6.7 13.5.9 1.9.2 8.2.6 14 1 5.8.3 13 .8 16 1 19.2 1.4 22.2 1.5 24 .5 5.8-3.1.3-5.9-18.5-9.5-16-3.1-17.3-3.3-20-3.9-1.1-.2-13.9-2.7-28.5-5.6-22.6-4.4-33.1-6.4-43.5-8.6-1.1-.2-4.7-.9-8-1.5s-10.5-1.9-16-3-11.6-2.2-13.5-2.5c-1.9-.3-4.2-.7-5-.9-.8-.2-3.1-.7-5-1-6-1-19.4-3.6-22-4.2-4.1-1.1 8.2-1.9 16.9-1.2 8.9.8 17.6 1.8 21.1 2.4 1.4.3 4.1.7 6 .9 1.9.3 5.8.7 8.5 1.1 2.8.3 6.1.8 7.5 1 1.4.2 4.5.7 7 1 2.5.3 6.1.7 8 1 1.9.3 5.4.7 7.8 1 4.1.5 9.3 1.1 16.2 2 3.9.5 10.1 1.3 17 2 2.5.3 5.9.7 7.5 1 26.6 3.8 40.5 1.7 40.5-6.2 0-2.8-3.9-7-8.6-9.2-1.6-.7-3.7-1.7-4.6-2.2-1-.5-2.7-.9-3.7-.9-3.2 0-3.3-1.7-.1-1.8 4.2-.1 5.7-1.2 3.4-2.6-1.2-.7-8.1-1.1-17.9-1.2-8.8 0-17.6-.3-19.5-.8-4.6-.9-24.4-4.4-29.5-5.1-2.2-.3-5.1-.8-6.5-1-1.4-.3-4.3-.7-6.5-1.1-2.2-.3-9.2-1.4-15.5-2.4-6.3-1-13.5-2.2-16-2.5-2.5-.3-5.6-.8-7-1-1.4-.3-4.1-.7-6-.9-1.9-.3-5.3-.8-7.5-1.1-6.4-1-8.6-1.3-15-2.1-3.3-.5-6.2-.9-6.5-.9-.3-.1-3.2-.5-6.5-.9-3.3-.5-6.7-1-7.5-1.1-.8-.2-4-.6-7-1-3-.3-6.8-.9-8.5-1.1-5-.8-24.7-3.5-29.5-4-2.5-.2-5.6-.6-7-.9-1.4-.2-4.9-.7-7.9-1-6.8-.8-9.2-1.3-9.8-1.9-.3-.3 1.5-.3 3.9-.1 2.3.2 8.8.6 14.3 1 5.5.3 12.7.8 16 1 3.3.2 9.8.7 14.5 1 15.3 1.1 21.4 1.5 26.5 2 2.8.2 8.8.7 13.5 1.1 4.7.3 9.9.7 11.5.9 1.7.1 6.8.6 11.5.9 4.7.4 9.9.9 11.5 1.1 1.7.2 6.6.7 11 1 4.4.4 9 .8 10.2 1 1.2.2 6 .7 10.5 1 4.6.4 9.4.9 10.8 1.1 2.3.4 6.6.8 18 1.9 2.5.2 6.1.6 8 .9 1.9.3 6.2.8 9.5 1.1 3.3.3 7.1.7 8.5 1 1.4.2 5.7.7 9.5 1 5.4.5 7.4 1.1 8.6 2.6 2.1 2.7 8.5 3.2 8.3.7-.1-1 .1-1.6.5-1.4.3.2 3.3.6 6.6 1 3.3.3 6.9.8 8.1 1 1.2.2 4.5.7 7.5 1.1 3 .3 8.1 1 11.4 1.5 3.3.5 8.5 1.2 11.5 1.5 3 .3 6.2.8 7 1 .8.2 4 .7 7 1.1 10.4 1.3 16.5 2.2 24 3.4 3 .5 7.8 1.2 10.5 1.5 2.8.4 5.7.8 6.5 1 .8.3 3.8.7 6.5 1 2.8.4 6.8 1 9 1.5s7 1.2 10.8 1.5c5.6.6 6.7.5 6.7-.8 0-2.1-2.2-2.6-19.5-5.2-1.6-.2-7.3-1.1-12.5-1.9-5.2-.8-11.3-1.8-13.5-2.1-2.2-.3-5.1-.7-6.5-1-1.4-.2-4.2-.7-6.2-1-2.1-.3-5.3-.7-7-1-9.9-1.4-19.7-2.7-22.8-3-1.9-.2-5.5-.7-8-1.1-2.5-.4-5.4-.8-6.5-.9-2.9-.4-12.6-1.6-15.8-2.1-1.5-.2-6.2-.8-10.5-1.3-4.2-.5-9.9-1.3-12.7-1.6-2.7-.3-6.3-.8-8-1-1.6-.3-5.5-.7-8.6-1-3.1-.2-7.2-.7-9-.9-1.9-.3-6.1-.8-9.4-1.1-3.3-.3-7.3-.8-9-1-1.6-.2-7.9-.9-14-1.5-6-.6-13.2-1.3-16-1.6-2.7-.4-7-.8-9.4-.9-4.4-.4-13.9-1.2-21.6-2-7-.7-15.8-1.4-23.5-2-4.1-.3-9.5-.8-12-1-4.2-.5-7-.7-26-2-4.1-.3-10-.7-13-1-16.3-1.3-49.1-3.3-83-5-22.3-1.1-31-1.6-32.7-1.9-3.1-.6-15.8-2-16.5-1.8-.4.1-2.1-1.8-3.7-4.2-1.7-2.4-4.7-5.7-6.8-7.5l-3.8-3.1 3 .4c1.7.3 6.4.8 10.5 1.1 4.1.3 8.6.8 10 1 1.4.3 5.2.7 8.5.9 3.3.3 8 .8 10.5 1 2.5.3 7.2.8 10.5 1.1 11.7 1.1 17 1.6 20.5 2 1.9.2 6.7.7 10.5 1 3.9.3 9 .8 11.5 1 2.5.3 7.2.7 10.5 1 3.3.3 8 .7 10.5 1 2.5.3 7.4.7 11 1 11.5 1 26.5 2.6 28 3 .8.3 3.3.7 5.5 1 5.6.8 49.4 7.6 58.5 9.1 1.4.2 4.5.6 7 .9 2.5.3 5.4.8 6.6 1 1.2.3 3.9.7 6 1 6.1.9 22.5 3.4 26.9 4.1 7.9 1.3 13.7.9 15.2-1.2 1.2-1.7 1.1-2.1-.7-3.6-2.3-1.9-6.9-3.3-13.5-4.3-14.1-2.2-23-3.7-23.4-4-.2-.3.9-.9 2.5-1.5 12.2-4.4 14.4-12.4 5.6-20.1l-3.5-3.1 18.4.6c50.4 1.7 107.8 2.6 114.2 1.7 1.5-.2 2.7-.9 2.7-1.6 0-1.5-2.8-2.2-11.5-3-3.3-.3-7.8-.7-10-.9-10.2-1.1-33.1-3.2-45-4.1-3.8-.3-9-.8-11.4-1.1-2.5-.2-7.9-.7-12-.9-4.2-.3-9.6-.7-12.1-1-2.5-.3-7.4-.7-11-1-19-1.5-27.6-2.2-37-3.1-5.2-.4-7.9-.7-21-1.9-3-.3-8.9-.7-13-1-6.9-.5-15.7-2.6-39.1-9.1-4.7-1.4-9.5-2.7-10.5-2.9-1-.2-5.5-1.4-9.9-2.6-9.6-2.5-6.3-1.7-33-8.4-19.7-4.9-32.2-7.8-39.5-9.1-1.4-.3-3.3-.7-4.2-1-.9-.3-2.7-.7-4-.9-1.3-.3-4.6-.9-7.4-1.5-2.8-.6-6.1-1.3-7.5-1.5-3.9-.6-14.2-2.5-16.9-3-1.4-.3-3.6-.7-5-1-1.4-.2-4.5-.7-7-1-2.5-.4-8.5-1.3-13.5-2-8-1.3-25.4-3.5-38.5-5-2.5-.3-6.1-.7-8-1-1.9-.2-6.6-.7-10.5-1.1-3.8-.3-8.3-.8-10-.9-1.6-.2-6.6-.6-10.9-1-4.4-.3-9.3-.8-11-1-1.7-.2-7.1-.6-12.1-1-4.9-.3-11.5-.8-14.5-1-4.8-.4-15.9-1.1-31-2-2.5-.1-10.1-.6-17-1-16.6-.9-17.9-1.1-29.5-3.5-9.9-2.1-13.1-2.8-17-3.4-1.1-.2-7.2-1.4-13.5-2.6-6.3-1.2-14.6-2.8-18.5-3.5-3.8-.7-8.9-1.6-11.2-2l-4.3-.7 3-2.5c1.7-1.4 3-3.3 3-4.2 0-1 .2-2 .5-2.3.3-.3 6.7.6 14.3 1.8 7.5 1.3 15.7 2.6 18.2 2.9 2.5.3 5.6.8 7 1.1 1.3.3 4 .7 6 1 1.9.2 5.8.8 8.5 1.3 2.8.5 7.3 1.3 10 1.7 2.8.4 5.7.9 6.5 1 .8.2 3.5.6 6 .9 2.5.3 5.4.8 6.5 1 1.9.4 4.3.8 13.3 2 2 .3 5.1.7 6.7 1 1.7.3 4.7.7 6.8 1 2 .3 5.3.7 7.2 1 1.9.3 5.2.7 7.3 1 2 .3 5.1.7 6.7 1 1.7.3 5.3.7 8 1 2.8.3 6.1.8 7.5 1 2.6.4 5 .7 18.5 2.5 7.6.9 11.9 1.5 21 2.5 3.8.5 9.3 1.2 16 2 1.7.2 5.7.7 9 1 3.3.3 7.1.8 8.5 1 1.4.2 5.4.7 9 1 3.6.3 7.6.8 9 1 1.4.2 5.8.7 9.7 1 4 .3 8 .8 9 .9 1 .2 5.4.7 9.8 1.1 4.4.3 9.1.8 10.5 1 1.4.2 6.1.6 10.5 1s9.1.9 10.5 1c1.4.1 6.1.5 10.5.9s10 .9 12.5 1.1c2.5.3 7.2.7 10.5 1 3.3.3 8.3.7 11 1 2.8.2 8.6.7 13 1 10.9.8 17.9 1.4 25 2 3.3.2 9.6.7 14 1 4.4.3 9.9.8 12.2 1 2.3.3 8.8.7 14.5 1 5.7.3 12.1.8 14.3 1 2.2.3 8.3.7 13.5 1 5.2.3 11.8.8 14.5 1 2.8.2 10 .7 16 1 6.1.3 13.3.8 16 1 2.8.2 9.5.7 15 1 5.5.3 12.3.8 15 1 2.8.2 10.4.7 17 1 6.6.4 14.5.8 17.5 1 3 .2 10.2.7 16 1 18.4 1 24.3 1.4 31.5 1.9 3.9.3 12 .8 18 1.1 6.1.3 14.2.8 18 1 54.4 3.6 58.5 3.6 64.2.9 3-1.5 3.9-2.5 4.1-5 .3-2.6-.3-3.7-3.2-6.1-3.6-2.9-10.6-5.9-16.1-6.7-3.8-.6-16.6-2.4-22.5-3.1-2.5-.4-5.6-.8-7-1-1.4-.2-4.5-.6-7-.9-2.5-.3-6.7-.8-9.5-1.2-2.7-.3-6.1-.7-7.5-.9-1.4-.1-4.7-.5-7.5-.9-8.7-1-14.2-1.6-21.5-2.2-3.9-.3-7.9-.7-8.8-.9-1-.2-5.8-.6-10.8-1-4.9-.4-10.5-.9-12.4-1-1.9-.2-7.3-.6-12-1-4.7-.3-11.2-.7-14.5-1-7.8-.6-16.9-1.3-27.5-2-4.7-.3-11.9-.7-16-1-4.1-.3-12.7-.8-19-1.1-6.3-.3-14.2-.7-17.5-.9-29-1.5-42.3-2.2-59-3-19.3-.9-36.5-1.8-57.5-3-5.8-.3-13.4-.8-17-1-10.8-.5-27.2-1.6-33-2-3-.2-9.5-.7-14.5-1-4.9-.3-11.9-.8-15.5-1-3.6-.3-10.3-.7-15-1-4.7-.3-10.7-.7-13.5-1-2.7-.2-8.6-.6-13-.9-4.4-.4-10.7-.8-14-1.1-3.3-.3-9.4-.7-13.5-1.1-4.1-.3-9.5-.7-12-.9-2.5-.3-7.9-.7-12-1-7-.5-11.8-1-21.5-2-4.9-.6-10.8-1.2-20-2-3.8-.4-8.1-.8-9.5-1.1-1.4-.2-5-.6-8-.9-3-.3-6.8-.8-8.5-1-1.6-.2-5.2-.7-8-1-2.7-.3-6.5-.8-8.3-1.1-1.8-.2-5.4-.6-8-.9-5.7-.7-11.1-1.4-13.7-1.9-1.1-.2-4.5-.7-7.6-1-3.1-.4-6.5-.8-7.5-1-1.1-.2-4.4-.7-7.4-1.1-7-.8-10.8-1.4-14-2-1.4-.3-4.5-.7-7-1-2.5-.3-5.6-.7-7-1-1.4-.2-4.5-.7-7-1.1-2.5-.3-5.4-.7-6.5-.9-1.1-.1-4.2-.6-7-.9-2.7-.4-7.5-1.1-10.5-1.6s-7.5-1.2-10-1.5c-5.4-.7-9.6-1.4-13-2-1.4-.2-4.5-.7-7-1-9-1.2-14.7-2.2-25-4.5-4.7-1-11.4-2.1-15-2.5-3.6-.3-8.1-.8-10-1.1-1.9-.2-5.8-.6-8.6-.9-7.5-.6-34.2-5.1-74.9-12.6-9.3-1.7-17.5-3.2-18.2-3.3-10.9-1.7-91.3-18.3-91.3-18.9 0-.5.3-.6.8-.4.4.3 4.3.8 8.7 1.1 4.4.4 9.4.9 11 1.1 4.7.5 17.7 1.7 21 2 5.8.5 19 1.7 22.5 2 1.9.2 6.9.7 11 1 4.1.4 9.3.8 11.5 1.1 2.2.2 7.6.6 12 .9 4.4.3 10 .8 12.5 1 7.5.7 28.4 2.3 39.5 3 3.9.2 11.1.7 16 1 10.5.8 17.3 1.1 38.5 2 12.5.5 15.9.4 17.4-.8 1.8-1.3 1.8-1.4-.4-3.5-2.5-2.3-7.5-3.4-22.5-4.7-3.8-.3-8.3-.8-10-1-1.6-.2-6.1-.7-10-1-3.8-.3-8.3-.8-10-1-1.6-.2-5.5-.7-8.6-1-3.1-.3-6.5-.7-7.5-.9-1.1-.2-5.7-.7-10.4-1.1-4.7-.4-8.7-.8-9-1-.3-.2-4.1-.6-8.5-.9-4.4-.4-8.7-.9-9.5-1.1-.8-.2-4.6-.6-8.3-1-3.7-.3-7.6-.8-8.5-1-.9-.1-4.8-.6-8.5-1-3.7-.3-7.6-.8-8.5-1-.9-.1-4.8-.6-8.5-1-3.7-.3-7.6-.8-8.5-.9-.9-.2-4.8-.7-8.6-1.1-3.8-.4-7.9-.8-9-1-1.2-.2-6.4-.9-11.6-1.5-5.2-.6-10.8-1.3-12.5-1.5-1.6-.2-5.6-.7-8.8-1-3.2-.4-6.7-.8-7.7-1-1-.2-4.7-.6-8.2-1-3.5-.3-7.4-.8-8.8-1-4.4-.7-21.2-2.8-32-4-6.1-.7-7.5-.9-24.5-3.1-6.6-.8-13.8-1.7-16-2-9.6-1.1-12.1-1.7-14.4-3.1-2.4-1.5-2.3-1.6 6.5-4.8 32-11.4 55.4-30.2 76.3-61.3 4.6-6.8 12.3-21.2 13.5-25.2.5-1.4 1-3 1.2-3.5 1.3-3.7 2.5-10 3-16.1 1.2-13.5-3.7-25.8-14.3-36.2-3.6-3.5-6.7-6.2-6.9-5.9-.3.2.4 2 1.6 3.9 3.4 5.9 4.7 12 4.5 21.4-.2 10.7-2.1 18.3-8.2 32.6-4.4 10.6-7.6 15.8-4.8 7.8.8-2.2 1.2-4 1-4-.3 0 0-1.1.5-2.4 2.6-6.9 3.3-22.5 1.4-30-4.9-18.9-21.1-30.1-51.5-35.6-19.7-3.6-48.2-4.3-61.5-1.6-1.2.2-3.7.7-5.5 1-2.9.4-10 1.8-21.9 4.2-7.1 1.5-26.1 6.9-35.8 10.3-28.1 9.9-47.2 22.8-59.4 40.1-4.4 6.1-10.6 17.9-12.3 23.2-.4 1.3-.9 2.7-1 3.3-2 6.1-5.2 20.7-5.4 24.6-.1 1.1-1 1.5-2.8 1.4-4.8-.3-5.9.8-1.9 1.9 2.1.6 3.8 1.5 3.9 1.9.1.5-8.6 1.1-19.3 1.3-10.7.2-21.1.6-23 .8-9.9 1.3-13.6.8-26-3.2-11.9-3.9-25.6-7.8-31-8.8-1.4-.3-5.9-1.3-10-2.4-4.1-1-12.2-2.8-18-3.9-5.8-1.2-11.6-2.3-13-2.6-1.4-.3-4-.8-5.9-1.1-1.8-.3-4.3-.8-5.5-1-1.1-.2-12.7-2.5-25.6-4.9-12.9-2.5-27.2-5.4-31.7-6.5-4.5-1.1-8.4-2-8.7-2-.4 0 0 1.6.8 3.5 1.9 4.5.8 4.6-7 .4-3.3-1.7-8.4-4.2-11.4-5.5l-5.5-2.4 4 3.7c2.2 2 3.6 3.4 3 3.1-4.5-2.4-11.6-5.1-19-7.3-7.7-2.2-10.6-2.8-17.5-3.9-.8-.1-4.2-1.5-7.5-3-19.6-9.2-61.2-24.2-75.5-27.1-12.3-2.6-31.8-8.1-36.5-10.4-3.3-1.7-9.4-3.9-13.5-5-9.5-2.5-12.9-3.9-22-9.4-10.4-6-28.1-14.6-43-20.6-12.1-4.9-37.7-14.1-38.9-14.1-.3 0 3 1.8 7.4 3.9 8.2 4 9.5 5.3 2.8 2.6-3.6-1.4-19.7-5.5-21.7-5.5-.6 0-.5.5.2 1.2 2.6 2.6.8 2.5-8.1-.7-7.9-2.8-21.1-6.1-32.2-8-8.1-1.4-25.7-2.3-34.5-1.7zm750.9 46.1c21.3 4.2 35.1 13.2 42.1 27.4 7.4 15.2 8.3 40.8 2 59.1-5 14.8-15.6 28.9-28.4 38-10.5 7.5-9.7 7.4-21.4 1.6-16.6-8.2-47.4-19.2-65.7-23.5-1.6-.4-3.7-.9-4.5-1.1-6-1.5-24.3-5.4-28-5.9-2.4-.4-4.8-.9-5.1-1.1-1.5-.9 1.9-21.3 5.2-31.5 5.8-18.1 19-37.6 32.2-47.5 10.9-8.1 26.8-15 37.2-16.1 2.8-.3 5.2-.7 5.4-.9.8-.7 23.7.5 29 1.5zM338 757c36.6 11.4 51.8 15.7 81.6 22.9 9.9 2.3 13.3 3.7 18.3 7 3.4 2.3 6.1 4.4 6.1 4.6 0 .4-.9.1-10.2-2.8-2.8-.9-4.5-1.1-4.1-.4.3.5.1.7-.4.4-.6-.4-2.8-.9-4.9-1.3-2.2-.3-7.7-1.4-12.4-2.5s-12.5-2.9-17.5-4c-4.9-1.1-11.9-2.7-15.4-3.6l-8.1-1.8c-.8-.2-4.9-1.4-9-2.8-20.8-7-56.9-16.6-77.7-20.8-3.4-.7-6.1-1.5-5.8-1.7.2-.2 2.4-.6 4.8-.9 2.5-.2 8.1-1 12.4-1.6 8.8-1.4 6.2-2 42.3 9.3zm-37.5 53.1c11.6 2.8 27.6 6.9 35.8 9 8.1 2.1 23.2 5.9 33.5 8.5 10.3 2.6 19 4.9 19.4 5.3.4.3-1.4.6-4 .6-3 0-4.6.4-4.5 1.1.2 1.3.1 1.2-9.2-1.1-3.3-.8-7.8-1.7-10-2.1-2.2-.3-4.3-.8-4.6-1-.3-.2-2.1-.6-4-.9-1.9-.3-4.5-.8-5.9-1-3.8-.8-7-1.4-13-2.5-3-.6-6.6-1.2-8-1.5-1.4-.3-5.4-1-9-1.6-3.6-.5-7.6-1.2-9-1.4-1.4-.2-5.3-.5-8.7-.7-5.9-.2-6.7-.5-13-5.6-3.8-3-9.6-7.2-13-9.4-3.5-2.3-6.3-4.2-6.3-4.3 0-.2 2.8.5 6.3 1.6 3.4 1 15.7 4.2 27.2 7zM142.3 933.2c-.6.7-2.3 3.3-3.7 5.6-1.5 2.4-3 4.1-3.3 3.8-.6-.5 6.4-10.6 7.4-10.6.3 0 .1.6-.4 1.2zm1066 237.5c-.7.2-1.9.2-2.5 0-.7-.3-.2-.5 1.2-.5s1.9.2 1.3.5zm-610.3 4.8c1.4.2 3.9.4 5.5.5 2.5.1 2.7.2 1 .9-1.1.4-7.4.7-14 .5-6.6-.1-14.9-.2-18.4-.3-8.2-.1-7.3-1.1 1.6-1.8 3.7-.3 6.9-.6 7.1-.8.4-.3 13.5.4 17.2 1z"/><path d="M1095 861c-1.6.4-2.1.8-1.3 1.3 1.9 1.2 6.2 1.6 25.7 2.2 10 .3 24 .8 31.1 1 29.8 1 55.2 1.8 101 3 8.3.2 29.4.7 47 1 17.6.4 35.6.8 40 .9 4.4.1 9.1-.1 10.5-.4 5.4-1.4-1.5-2.8-14.5-2.9-7.1-.1-19.3-.4-27-.6-7.7-.2-25.7-.7-40-1-14.3-.3-31.8-.8-39-1-7.1-.2-22.7-.6-34.5-1-11.8-.3-26-.8-31.5-1-8.4-.3-32.8-1.1-59-1.9-3.3-.1-7.1 0-8.5.4zM1714 956c-1.5.9-1.4 1 3.3 2.4.6.2 2.3-.1 3.7-.6 2-.7 2.2-1.1 1-1.8-1.9-1.2-6.1-1.2-8 0zM1.5 964c-.8 1.3.5 1.3 2.5 0 1.3-.8 1.3-1-.2-1-.9 0-2 .4-2.3 1zM450 1272.5c-6.8 1.8-9.3 3.4-8.5 5.3 1.5 3.7 2.2 6.8 1.9 8.7-.2 1.1-.6 9.4-.9 18.5-1 25.2 0 26.2 25.8 27.4 8 .4 16.6-2.5 21-7.1 7.3-7.4 6.5-19-1.5-23.7l-2.8-1.7 3-3.7c6.1-7.4 3.2-17.4-6.5-22.2-4.3-2.1-6.6-2.4-16-2.6-6.1-.1-13 .4-15.5 1.1zm20.3 12.4c6.3 2.4 3 7.9-5.1 8.6l-5.3.4.2-4.2c.1-2.3.4-4.5.6-5 .6-1 6.7-.9 9.6.2zm3.6 24c1.4.8 2.1 2.1 2.1 4.1 0 4.7-4.4 6.2-15.7 5.1-.9-.1-1.3-1.9-1.3-5.7v-5.5l6.4.4c3.5.3 7.3 1 8.5 1.6zM557.9 1272.3c-4.7 1.3-10.1 4.7-13.2 8.2-4.5 5.1-8.1 15.1-8.1 22.5 0 20.7 17.5 33.7 37.8 28 8.3-2.3 16.9-12 19.5-22 .3-1.4.6-5.9.6-10-.1-11.8-5-20.1-15-25.2-4.9-2.6-15.2-3.3-21.6-1.5zm14.2 14.3c4.6 4.1 5.6 17.7 2 25.8-3.8 8.7-12.3 9.1-16.6.9-1.5-2.8-2-5.7-2-11.4 0-8.3 1.3-12.1 5.4-15.6 2.9-2.6 8.2-2.4 11.2.3zM829.9 1271.9c-2 .4-9.3.6-16.2.4-13-.4-16.5.3-19.6 4.1-1 1.2-.9 2 .4 4 1.5 2.2 1.6 4.3.9 15.8-1.9 33.6-1.5 34.4 17 35.2 12.2.6 19.9-.5 23.6-3.3 3.4-2.4 3.8-7.8 1-11.3-2-2.6-2.1-2.7-5.8-1.1-3.7 1.6-15.3 2.7-18.3 1.7-1.2-.3-1.6-1.5-1.4-4.7.1-2.3.3-4.4.4-4.7 0-.3 2.9-.4 6.3-.4 7.1.2 11.4-1 12.8-3.6 2.5-4.6-.4-11.6-4.2-10.4-1.2.3-4.7.8-7.9 1l-5.9.4v-8.7l9.4.1c10.5.1 14.3-1.5 15.7-6.6.7-2.9-1.6-8.9-3.5-8.7-.6.1-2.7.4-4.7.8zM892.9 1272.4c-3.1.7-6.8 2-8.3 2.9-2.4 1.6-2.5 1.9-1.1 4.1 1.2 1.8 1.4 4.1.9 10.2-1.8 24.3-1 36.2 2.6 39.8 2.5 2.6 7.6 2.8 12.3.4 4.2-2.1 4.1-1.8 2.6-5.5-.6-1.5-1.2-5.1-1.4-7.9-.3-5.2-.3-5.2 2.4-4.5 1.4.5 3.1.6 3.6.5.6-.2 2.4 2.2 4.2 5.4 6.2 11.3 12.3 15.4 20.8 13.8 2.6-.5 4.4-1.8 6.5-4.8 3.7-5 3.7-5.6.3-6.4-4.8-1.2-8.6-3.5-12.5-7.8l-3.8-4.1 3.5-3.2c8.5-7.8 9-20.8 1.1-28.2-5.7-5.3-20.6-7.4-33.7-4.7zm19.2 13.2c2.1 1.9 2.6 7.3.9 10.3-1.1 2.2-3.2 3.2-8.3 3.8l-3.8.5.5-7.4c.2-4 .5-7.8.5-8.4.1-1.7 8-.8 10.2 1.2zM992 1272.2c-1.9.5-5.4 1.6-7.7 2.5l-4.1 1.5 1.8 3.2c.9 1.7 1.6 4.4 1.4 6.1-.1 1.6-.6 10.2-.9 19-.9 20.9.3 25.8 6.6 27 3.4.7 7.4-.3 10.3-2.6 2.4-1.9 2.5-2.2 1.2-4.7-.7-1.5-1.4-4.7-1.5-7.2l-.2-4.6 6.8-.1c14.5-.1 24.3-8.5 24.3-20.8 0-13-9.8-20.4-26.7-20.2-4.3 0-9.4.4-11.3.9zm18.3 13.9c3.8 4.7.5 13.6-5.3 14-4.2.2-6.1-.1-5.6-.9.3-.5.6-3.9.7-7.8.1-3.8.4-7.2.6-7.6.8-1.5 7.8.2 9.6 2.3zM1254.6 1272c-5.4 1-9 5.1-8 9.4 1.1 5.3 2 5.8 9.3 5 3.6-.3 7.6-.8 8.9-.9 2.2-.2 2.2-.1 1.5 8.4-.3 4.7-.6 13.6-.6 19.7 0 12.1 1.7 17.2 5.8 17.6 1.1.1 2.9.2 4 .3 2.6.2 6.6-1.3 8.7-3.2 1.6-1.4 1.6-1.7.1-4-1.2-1.8-1.6-5-1.7-12.6 0-13 .5-23.4 1.3-24.4.3-.4 3.1-.9 6.1-1 6.4-.3 10.7-1.8 12-4.4 1.5-2.7 1.2-6.5-.8-8.8-1.5-2-2.2-2.1-5.8-1.3-3.7.8-34.5.7-36.2-.1-.4-.2-2.5 0-4.6.3zM1378.5 1271.9c-1.6.4-8.8.5-15.8.3-12.5-.3-13-.3-16.8 2.3-3.8 2.5-3.9 2.6-2.3 5s2 12.9.9 22.5c-.8 6.9-.8 18.6-.1 21.7.5 1.9 2 4.2 3.8 5.4 2.7 2 4.4 2.2 16.7 2.3 11.4.1 14.4-.2 17.8-1.8 6.4-2.9 7.6-8.2 3.1-13.3-1.9-2-2.1-2.1-5.6-.6-2.1.9-7.2 1.7-11.4 1.9-8.5.2-8.2.4-7.8-6.1.1-1.7.3-3.1.4-3.2.1-.2 3.4-.4 7.4-.6 10.3-.6 13.3-3.1 12.2-10.6-.2-2-2.8-4.3-3.9-3.6-.6.3-4.2.8-8.1 1l-7.1.4.3-4.2.3-4.2h9.1c13.1-.1 17.7-3.5 15.1-11.2-1.3-4.1-2.7-4.7-8.2-3.4zM643.3 1273.7c-4 2-4.7 3.7-2.9 7.1 1 2 1.2 5.3.8 12.7-.3 5.5-.6 15.3-.6 21.8l-.1 11.9 2.9 2.4c2.3 2 3.6 2.4 6.5 2 2-.3 3.9-.5 4.2-.6.4 0 1.8-.9 3.3-2.1 2.5-2 2.5-2.1 1-5.2-1.4-2.7-1.6-5.1-.9-16.2.4-7.1.8-17.2.9-22.3.1-8.7-.1-9.5-2.3-11.3-2.8-2.3-8.4-2.4-12.8-.2zM711 1273.1c-1.3.6-3.2 1.7-4.2 2.6-1.6 1.4-1.6 1.8-.2 4.6 1.4 2.5 1.5 5 .8 15.6-1.3 21.1-1 27.8 1.3 30.8 1 1.5 3.3 3.1 4.9 3.6 3.7 1.1 24.8 1.3 29.4.4 7.4-1.6 10.6-8.9 6.1-13.8-2-2.1-2.2-2.2-6.8-.7-2.7.9-7.8 1.5-11.8 1.4l-7-.1.2-6.5c0-3.6.4-12.7.9-20.3.7-13.5.7-13.8-1.6-16.2-2.5-2.7-7.3-3.2-12-1.4zM1077 1273.1c-1.3.6-3.2 1.7-4.2 2.6-1.6 1.4-1.6 1.8-.2 4.6 1.3 2.5 1.5 5.1.9 16.1-1.1 18.5-.9 26.9.4 29.4 2.3 4.4 6.6 5.5 20.1 5.5 12.8 0 14.5-.2 19.2-2.1 4.4-1.8 5.4-8.9 1.7-12.7-1.7-1.7-2.2-1.8-5.6-.6-4.4 1.6-14.3 2.6-17.7 1.7-2.4-.6-2.5-.7-2-8.9.2-4.5.6-10 .9-12.2 1.4-13.7.6-20.9-2.4-23.2-1.9-1.5-7.6-1.6-11.1-.2zM1184.2 1273.1c-4 1.6-13.7 12.1-17.6 19.2-5.5 9.7-8.7 20-8.9 27.5 0 5.5.3 6.6 2.5 8.9 2.7 2.7 8.3 3.7 14.1 2.6 2.5-.5 2.8-.9 2.3-3.2-1.4-5.7-1.7-9.1-.9-9.2.4 0 4.5-.2 8.9-.4l8.2-.4 1.6 4.3c2.1 5.5 5.4 8.5 9.7 9.1 4.3.6 7.9-.9 10.3-4.1 1.8-2.5 1.8-2.6-.2-4.7-3.2-3.6-4.1-6-6.7-18.4-3.1-14.1-4-17.2-7.2-23.9-3.6-7.4-9.4-10-16.1-7.3zm5.3 27.7l.7 4.2h-12.3l1.7-3.3c.9-1.7 2.8-5.1 4.3-7.4l2.6-4.3 1.1 3.3c.6 1.8 1.5 5.2 1.9 7.5z"/></svg>